# xmcd
#
# Track frame offsets: 
#        150
#        22876
#        36816
#        55339
#        70586
#        96649
#        115698
#        134625
#        154916
#        169121
#
# Disc length: 2773 seconds
#
# Revision: 0
# Processed by: cddbd v1.5.2PL0 Copyright (c) Steve Scherf et al.
# Submitted via: ExactAudioCopy v0.99pb5
#
DISCID=850ad30a
DTITLE=Electric President - The Violent Blue
DYEAR=2010
DGENRE=Indie
TTITLE0=The Ocean Floor
TTITLE1=Mr. Gone
TTITLE2=Safe And Sound
TTITLE3=Feathers
TTITLE4=Nightmare No. 5 Or 6
TTITLE5=The Violent Blue
TTITLE6=Circles
TTITLE7=Elegant Disasters
TTITLE8=Eat Shit And Die
TTITLE9=All The Distant Ships
EXTD=
EXTT0=
EXTT1=
EXTT2=
EXTT3=
EXTT4=
EXTT5=
EXTT6=
EXTT7=
EXTT8=
EXTT9=
PLAYORDER=
